<svg width="152" height="152" viewBox="0 0 152 152" fill="none" xmlns="http://www.w3.org/2000/svg">
<path d="M150.832 145.172C151.583 145.923 152.004 146.941 152.004 148.002C152.004 149.064 151.583 150.082 150.832 150.832C150.082 151.583 149.064 152.004 148.002 152.004C146.941 152.004 145.923 151.583 145.172 150.832L76.0022 81.6622L6.83223 150.832C6.08166 151.583 5.06368 152.004 4.00222 152.004C2.94077 152.004 1.92279 151.583 1.17223 150.832C0.421663 150.082 2.09238e-08 149.064 0 148.002C-2.09238e-08 146.941 0.42166 145.923 1.17222 145.172L70.3422 76.0022L1.17222 6.83223C0.421659 6.08166 0 5.06368 0 4.00222C0 2.94077 0.421659 1.92278 1.17222 1.17222C1.92278 0.421659 2.94077 0 4.00222 0C5.06368 0 6.08166 0.421659 6.83223 1.17222L76.0022 70.3422L145.172 1.17222C145.544 0.800581 145.985 0.50578 146.471 0.304649C146.956 0.103519 147.477 1.03604e-08 148.002 0C148.528 -1.03604e-08 149.048 0.103519 149.534 0.304649C150.019 0.50578 150.461 0.800581 150.832 1.17222C151.204 1.54386 151.499 1.98507 151.7 2.47064C151.901 2.95621 152.004 3.47664 152.004 4.00222C152.004 4.5278 151.901 5.04824 151.7 5.53381C151.499 6.01938 151.204 6.46058 150.832 6.83223L81.6622 76.0022L150.832 145.172Z" fill="black"/>
</svg>
