<svg width="224" height="252" viewBox="0 0 224 252" fill="none" xmlns="http://www.w3.org/2000/svg">
<path d="M67.6862 252C62.305 252 57.7696 250.046 54.0801 246.138C50.3991 242.221 48.5586 237.407 48.5586 231.694C48.5586 225.99 50.3991 221.18 54.0801 217.263C57.7696 213.346 62.305 211.388 67.6862 211.388C73.0589 211.388 77.59 213.346 81.2795 217.263C84.969 221.18 86.8138 225.99 86.8138 231.694C86.8138 237.407 84.969 242.221 81.2795 246.138C77.59 250.046 73.0589 252 67.6862 252ZM187.348 252C181.976 252 177.445 250.046 173.755 246.138C170.066 242.221 168.221 237.407 168.221 231.694C168.221 225.99 170.066 221.18 173.755 217.263C177.445 213.346 181.976 211.388 187.348 211.388C192.73 211.388 197.265 213.346 200.955 217.263C204.636 221.18 206.476 225.99 206.476 231.694C206.476 237.407 204.636 242.221 200.955 246.138C197.265 250.046 192.73 252 187.348 252ZM49.4895 40.6124L83.5239 116.625H168.132C169.602 116.625 170.907 116.237 172.046 115.461C173.194 114.676 174.176 113.593 174.992 112.212L208.338 47.9091C209.324 45.9958 209.409 44.2991 208.593 42.819C207.777 41.3479 206.387 40.6124 204.423 40.6124H49.4895ZM43.2539 27.0749H209.281C214.816 27.0749 218.981 29.4756 221.778 34.2769C224.584 39.0691 224.732 44.0103 222.224 49.1004L185.78 119.604C183.935 122.898 181.538 125.483 178.588 127.361C175.638 129.229 172.395 130.163 168.858 130.163H77.7856L62.2922 160.365C60.983 162.441 60.9405 164.697 62.1647 167.134C63.3889 169.57 65.2294 170.789 67.6862 170.789H206.476V184.326H67.6862C60.2477 184.326 54.6964 180.996 51.0324 174.336C47.3769 167.675 47.2877 160.988 50.7646 154.273L69.9433 117.993L23.0551 13.5375H0V0H31.1397L43.2539 27.0749Z" fill="#525252"/>
</svg>
