<svg width="352" height="352" viewBox="0 0 352 352" fill="none" xmlns="http://www.w3.org/2000/svg">
<path d="M349.939 339.987L257.281 247.329C283.25 218.762 297.016 181.17 295.638 142.588C294.26 104.005 277.847 67.4919 249.905 40.8501C221.964 14.2082 184.711 -0.448994 146.106 0.0104856C107.502 0.469965 70.6084 16.0097 43.309 43.309C16.0097 70.6084 0.469965 107.502 0.0104856 146.106C-0.448994 184.711 14.2082 221.964 40.8501 249.905C67.4919 277.847 104.005 294.26 142.588 295.638C181.17 297.016 218.762 283.25 247.329 257.281L339.987 349.939C341.307 351.259 343.097 352 344.963 352C346.829 352 348.619 351.259 349.939 349.939C351.259 348.619 352 346.829 352 344.963C352 343.097 351.259 341.307 349.939 339.987ZM14.4179 148.043C14.4179 121.614 22.2549 95.7792 36.9378 73.8047C51.6206 51.8303 72.49 34.7033 96.9067 24.5895C121.323 14.4758 148.191 11.8296 174.111 16.9855C200.032 22.1414 223.842 34.868 242.53 53.5557C261.217 72.2435 273.944 96.0531 279.1 121.974C284.256 147.894 281.609 174.762 271.496 199.179C261.382 223.595 244.255 244.465 222.281 259.147C200.306 273.83 174.471 281.667 148.043 281.667C112.615 281.63 78.6483 267.54 53.5968 242.488C28.5454 217.437 14.4552 183.471 14.4179 148.043Z" fill="#525252"/>
</svg>
