<svg width="180" height="180" viewBox="0 0 180 180" fill="none" xmlns="http://www.w3.org/2000/svg">
<path d="M179.518 174.375C164.644 147.602 140.801 129.322 113.177 122.732C126.303 117.133 137.155 106.962 143.878 93.9573C150.601 80.9525 152.779 65.9206 150.038 51.4299C147.297 36.9392 139.809 23.8889 128.852 14.5086C117.895 5.12824 104.15 0 89.9642 0C75.7787 0 62.0333 5.12824 51.0764 14.5086C40.1195 23.8889 32.6311 36.9392 29.8905 51.4299C27.1498 65.9206 29.3271 80.9525 36.0503 93.9573C42.7734 106.962 53.6253 117.133 66.7519 122.732C39.1636 129.294 15.2849 147.602 0.410286 174.375C-0.0202975 175.232 -0.116196 176.229 0.142624 177.158C0.401445 178.087 0.994966 178.876 1.79921 179.36C2.60345 179.844 3.55621 179.986 4.45847 179.756C5.36073 179.525 6.14271 178.941 6.64106 178.125C24.2349 146.431 55.4068 127.504 89.9642 127.504C124.522 127.504 155.694 146.431 173.287 178.125C173.603 178.695 174.057 179.168 174.604 179.497C175.151 179.826 175.771 179.999 176.403 180C177.036 180.002 177.658 179.827 178.204 179.494C179.029 178.996 179.631 178.177 179.878 177.218C180.124 176.258 179.995 175.236 179.518 174.375ZM35.9401 63.7583C35.9401 52.6339 39.1086 41.7593 45.0448 32.5097C50.9811 23.2601 59.4185 16.0509 69.2901 11.7938C79.1617 7.53665 90.0241 6.42279 100.504 8.59305C110.983 10.7633 120.61 16.1202 128.165 23.9864C135.72 31.8525 140.866 41.8746 142.95 52.7852C145.035 63.6959 143.965 75.0051 139.876 85.2827C135.787 95.5603 128.863 104.345 119.978 110.525C111.094 116.705 100.649 120.004 89.9642 120.004C75.6413 119.987 61.9097 114.055 51.7818 103.511C41.654 92.9666 35.9568 78.6703 35.9401 63.7583Z" fill="#525252"/>
</svg>
