<svg width="33" height="33" viewBox="0 0 33 33" fill="none" xmlns="http://www.w3.org/2000/svg">
<path d="M18.4 32.6C14.7333 32.6 11.5333 31.9 8.8 30.5C6.1 29.1 4.03333 27.2 2.6 24.8C1.16667 22.3667 0.45 19.6667 0.45 16.7C0.45 13.5 1.26667 10.65 2.9 8.15C4.56667 5.61667 6.83333 3.66666 9.7 2.3C12.6 0.899998 15.85 0.199998 19.45 0.199998C21.0167 0.199998 22.5833 0.333332 24.15 0.599999C25.7167 0.866666 26.9833 1.23333 27.95 1.7C28.2167 1.83333 28.3833 1.96666 28.45 2.1C28.55 2.23333 28.6167 2.48333 28.65 2.85L29.25 9.35C29.25 9.45 29.1667 9.51667 29 9.55C28.8333 9.58333 28.7167 9.53333 28.65 9.4C27.65 6.9 26.15 4.95 24.15 3.55C22.15 2.15 19.8 1.45 17.1 1.45C13.4333 1.45 10.6167 2.65 8.65 5.05C6.68333 7.41667 5.7 10.6833 5.7 14.85C5.7 18.1167 6.3 21.0333 7.5 23.6C8.7 26.1667 10.35 28.1667 12.45 29.6C14.5833 31.0333 16.9667 31.75 19.6 31.75C21.0667 31.75 22.2 31.6 23 31.3C23.8 31 24.3833 30.4167 24.75 29.55C25.15 28.6833 25.35 27.4 25.35 25.7C25.35 23.9667 25.25 22.7667 25.05 22.1C24.85 21.4 24.4 20.9333 23.7 20.7C23.0333 20.4667 21.85 20.35 20.15 20.35C19.95 20.35 19.85 20.2167 19.85 19.95C19.85 19.85 19.8667 19.7667 19.9 19.7C19.9667 19.6 20.0333 19.55 20.1 19.55C22.8667 19.7167 25.0833 19.8 26.75 19.8C28.4167 19.8 30.15 19.75 31.95 19.65C32.0167 19.65 32.0667 19.7 32.1 19.8C32.1667 19.8667 32.2 19.9333 32.2 20C32.2 20.2333 32.1167 20.35 31.95 20.35C31.2833 20.3167 30.8167 20.4333 30.55 20.7C30.2833 20.9333 30.1 21.4333 30 22.2C29.9333 22.9667 29.9 24.3 29.9 26.2C29.9 27.7 29.95 28.7667 30.05 29.4C30.1833 30.0333 30.25 30.4333 30.25 30.6C30.25 30.8 30.2 30.9333 30.1 31C30.0333 31.0333 29.8833 31.1 29.65 31.2C25.45 32.1333 21.7 32.6 18.4 32.6Z" fill="white"/>
</svg>
